<svg width="28" height="28" viewBox="0 0 28 28" fill="none" xmlns="http://www.w3.org/2000/svg">
<rect width="28" height="28" rx="14" fill="white" fill-opacity="0.04"/>
<rect x="0.35" y="0.35" width="27.3" height="27.3" rx="13.65" stroke="white" stroke-opacity="0.1" stroke-width="0.7"/>
<path fill-rule="evenodd" clip-rule="evenodd" d="M16.9787 15.9763C17.1234 15.6884 17.474 15.5723 17.7618 15.7169C18.7153 16.1959 19.5212 16.9583 20.1045 17.8979C20.1928 18.0403 20.3215 18.2304 20.3614 18.488C20.4042 18.7637 20.3293 19.0275 20.2177 19.228C20.1062 19.4286 19.9216 19.6313 19.6647 19.7404C19.4205 19.8442 19.1549 19.8333 18.9583 19.8333C18.6362 19.8333 18.375 19.5721 18.375 19.25C18.375 18.9278 18.6362 18.6666 18.9583 18.6666C19.0838 18.6666 19.1499 18.6663 19.197 18.6631L19.1982 18.6609C19.2094 18.6408 19.1246 18.5315 19.1133 18.5133C18.6336 17.7406 17.9833 17.1337 17.2381 16.7594C16.9503 16.6148 16.8341 16.2642 16.9787 15.9763Z" fill="white" fill-opacity="0.5"/>
<path fill-rule="evenodd" clip-rule="evenodd" d="M15.8109 8.76324C15.9543 8.47474 16.3044 8.35708 16.5929 8.50046C17.6479 9.02475 18.375 10.1144 18.375 11.375C18.375 12.6355 17.6479 13.7252 16.5929 14.2495C16.3044 14.3929 15.9543 14.2752 15.8109 13.9867C15.6676 13.6982 15.7852 13.3481 16.0737 13.2047C16.7474 12.87 17.2083 12.1758 17.2083 11.375C17.2083 10.5742 16.7474 9.88001 16.0737 9.54523C15.7852 9.40185 15.6676 9.05174 15.8109 8.76324Z" fill="white" fill-opacity="0.5"/>
<path fill-rule="evenodd" clip-rule="evenodd" d="M9.33333 11.375C9.33333 9.60307 10.7697 8.16665 12.5417 8.16665C14.3136 8.16665 15.75 9.60307 15.75 11.375C15.75 13.1469 14.3136 14.5833 12.5417 14.5833C10.7697 14.5833 9.33333 13.1469 9.33333 11.375Z" fill="white" fill-opacity="0.5"/>
<path fill-rule="evenodd" clip-rule="evenodd" d="M12.5417 15.1666C14.4061 15.1666 16.0729 16.2191 17.09 17.745C17.1796 17.8795 17.2751 18.0229 17.342 18.1591C17.4224 18.3231 17.4801 18.5115 17.4666 18.7366C17.4558 18.916 17.3963 19.0825 17.3255 19.2147C17.2547 19.3469 17.1492 19.4887 17.0058 19.5972C16.8137 19.7425 16.6067 19.7934 16.4237 19.8146C16.2625 19.8334 16.0717 19.8334 15.8795 19.8333C13.6551 19.8329 11.4291 19.8329 9.20387 19.8333C9.01163 19.8334 8.8208 19.8334 8.65966 19.8146C8.47667 19.7934 8.26965 19.7425 8.07755 19.5972C7.93415 19.4887 7.82858 19.3469 7.7578 19.2147C7.68701 19.0825 7.62748 18.916 7.61671 18.7366C7.6032 18.5115 7.66095 18.3231 7.74136 18.1591C7.80817 18.0229 7.90373 17.8795 7.99333 17.7451C9.01043 16.2191 10.6772 15.1666 12.5417 15.1666Z" fill="white" fill-opacity="0.5"/>
</svg>
